<svg width="680" height="16" viewBox="0 0 680 16" fill="none" xmlns="http://www.w3.org/2000/svg">
<rect y="4" width="680" height="8" rx="4" fill="black" fill-opacity="0.08"/>
<rect y="4" width="670" height="8" rx="4" fill="#5558FA"/>
<rect width="16" height="16" rx="8" fill="#5558FA"/>
<path d="M7.6615 11.8736C7.56701 11.9987 7.41932 12.0722 7.26255 12.0722H6.68246C6.54732 12.0722 6.41794 12.0175 6.32379 11.9206L3.50416 9.01756C3.31572 8.82354 3.31572 8.51484 3.50416 8.32083L3.97576 7.83529C4.17213 7.63311 4.49672 7.63311 4.69309 7.83529L6.49492 9.6904C6.70848 9.91027 7.06779 9.88799 7.25254 9.64342L11.1512 4.48259C11.321 4.25784 11.6429 4.21763 11.8627 4.39369L12.3864 4.81303C12.5976 4.9822 12.6359 5.28875 12.4728 5.5047L7.6615 11.8736Z" fill="white"/>
<rect x="332" width="16" height="16" rx="8" fill="#5558FA"/>
<path d="M339.662 11.8736C339.567 11.9987 339.419 12.0722 339.263 12.0722H338.682C338.547 12.0722 338.418 12.0175 338.324 11.9206L335.504 9.01756C335.316 8.82354 335.316 8.51484 335.504 8.32083L335.976 7.83529C336.172 7.63311 336.497 7.63311 336.693 7.83529L338.495 9.6904C338.709 9.91027 339.068 9.88799 339.253 9.64342L343.151 4.48259C343.321 4.25784 343.643 4.21763 343.863 4.39369L344.386 4.81303C344.598 4.9822 344.636 5.28875 344.473 5.5047L339.662 11.8736Z" fill="white"/>
<rect x="664" width="16" height="16" rx="8" fill="#5558FA"/>
<circle cx="672" cy="8.00002" r="1.6" fill="white"/>
</svg>
